<svg xmlns="http://www.w3.org/2000/svg" width="58" height="56" viewBox="0 0 58 56">
  <g id="trans" transform="translate(-4 -4)">
    <path id="Path_1" data-name="Path 1" d="M42,54h3v6H42Z" fill="#fff"/>
    <path id="Path_2" data-name="Path 2" d="M37,54h3v6H37Z" fill="#fff"/>
    <path id="Path_3" data-name="Path 3" d="M23,8a8,8,0,1,0,8,8A8,8,0,0,0,23,8Zm0,7a3,3,0,0,1,1,5.82V22H22V20.82A3.01,3.01,0,0,1,20,18h2a1,1,0,1,0,1-1,3,3,0,0,1-1-5.82V10h2v1.18A3.01,3.01,0,0,1,26,14H24a1,1,0,1,0-1,1Z" fill="#fff"/>
    <path id="Path_4" data-name="Path 4" d="M8,47V34a1,1,0,0,1,1-1h5a3,3,0,0,0,0-6H7a3.009,3.009,0,0,0-3,3v4L5.91,54H26.48l2.8-4H11a3.009,3.009,0,0,1-3-3Z" fill="#fff"/>
    <path id="Path_5" data-name="Path 5" d="M6,56H26v4H6Z" fill="#fff"/>
    <path id="Path_6" data-name="Path 6" d="M30,37.96V28.99A4,4,0,0,1,33.99,25a3.927,3.927,0,0,1,2.01.56V5a1,1,0,0,0-1-1H11a1,1,0,0,0-1,1V25h4a5,5,0,0,1,0,10H10v7H28v2H10v3a1,1,0,0,0,1,1H33.15l-2.74-7.68A7.1,7.1,0,0,1,30,37.96ZM23,26A10,10,0,1,1,33,16,10,10,0,0,1,23,26Z" fill="#fff"/>
    <path id="Path_7" data-name="Path 7" d="M47,54h3v6H47Z" fill="#fff"/>
    <path id="Path_8" data-name="Path 8" d="M58,32a2.006,2.006,0,0,0-2,2v4H54V33a2.006,2.006,0,0,0-2-2,1.868,1.868,0,0,0-.64.11,1.8,1.8,0,0,0-.77.48A1.983,1.983,0,0,0,50,33v4H48V32a2,2,0,1,0-4,0v5H42V12a2,2,0,1,0-4,0V37H36V29a2,2,0,0,0-4-.01v8.97a5.176,5.176,0,0,0,.29,1.69L36.7,52H55.3l4.41-12.36A5.073,5.073,0,0,0,60,37.96V34a2.015,2.015,0,0,0-2-2Z" fill="#fff"/>
    <path id="Path_9" data-name="Path 9" d="M52,54h3v6H52Z" fill="#fff"/>
    <path id="Path_10" data-name="Path 10" d="M61.707,10.293l-4-4L56.293,7.707,58.586,10H47v2H58.586l-2.293,2.293,1.414,1.414,4-4a1,1,0,0,0,0-1.414Z" fill="#fff"/>
    <path id="Path_11" data-name="Path 11" d="M51.707,15.707l-1.414-1.414-4,4a1,1,0,0,0,0,1.414l4,4,1.414-1.414L49.414,20H61V18H49.414Z" fill="#fff"/>
  </g>
</svg>
